<svg xmlns="http://www.w3.org/2000/svg" xmlns:xlink="http://www.w3.org/1999/xlink" width="252" height="220" viewBox="0 0 252 220">
    <defs>
        <path id="a" d="M11.494 56.388L2.428 53 .166 48.816 80.444.692l16.04 10.264-83.296 49.02"/>
        <linearGradient id="b" x1="65.731%" x2="10.49%" y1="36.947%" y2="93.487%">
            <stop offset="0%" stop-opacity="0"/>
            <stop offset="100%"/>
        </linearGradient>
        <path id="d" d="M1.718 5.162C.494 10.32 1.45 17.078 5.06 19.256c2.966 1.79 3.21 1.706 3.224 1.658.008.212.17 3.006 3.41 2.818 3.37-.194 3.262-1.6 4.084-7.838.622-4.71 1.682-11.974-3.294-13.528 0 0-2.182-.54-4.592-.54-2.63 0-5.534.644-6.174 3.336z"/>
        <path id="f" d="M1.718 5.162C.494 10.32 1.45 17.078 5.06 19.256c2.966 1.79 3.21 1.706 3.224 1.658.008.212.17 3.006 3.41 2.818 3.37-.194 3.262-1.6 4.084-7.838.622-4.71 1.682-11.974-3.294-13.528 0 0-2.182-.54-4.592-.54-2.63 0-5.534.644-6.174 3.336"/>
        <linearGradient id="i" x1="70.642%" x2="18.778%" y1="63.978%" y2="68.227%">
            <stop offset="0%" stop-color="#45B5AE" stop-opacity="0"/>
            <stop offset="100%" stop-color="#177E78" stop-opacity=".5"/>
        </linearGradient>
        <path id="h" d="M.578 32.382L13.83 39.17 67.316 7.822l-12.55-6.81z"/>
        <path id="j" d="M4.54 34.988a6.009 6.009 0 0 0-3.004 5.204v105.62c0 1.372.766 2.476 1.82 3.048.156.086.196.106.236.128l.232.128.234.128c.154.086.194.106.234.128l.232.128c.156.088.196.108.236.128.152.088.194.108.232.128.156.088.194.108.234.126.154.09.194.108.234.13l.232.128.234.128c.154.086.194.106.234.128.154.086.194.106.234.128.154.086.194.106.234.128.154.086.192.108.232.128.154.086.196.108.234.128.154.088.194.108.234.128.154.088.194.108.234.128.154.088.194.106.232.128l.234.128c.154.086.194.106.234.128l.232.128c.156.086.196.106.236.128l.232.128c.156.086.194.108.234.128.156.086.194.108.234.128.154.088.194.108.234.128l.232.128.234.128.234.128.232.128c.158.086.196.106.234.128.156.086.196.106.234.128.158.088.196.106.234.128.156.088.196.108.234.126.156.09.194.108.232.13l.236.128c.154.086.196.106.232.128.156.086.196.106.234.128.156.086.196.106.234.128l.234.128.232.128c.156.086.196.108.236.128.154.086.194.108.232.126.156.088.196.108.234.13l.234.128c.154.086.194.106.234.128.154.086.194.106.234.128.154.086.194.106.234.128.152.086.194.106.232.128a3.442 3.442 0 0 0 3.514.014l56.686-33.022a5.368 5.368 0 0 0 2.668-4.64V11.828a3.41 3.41 0 0 0-1.806-3.024c-.154-.088-.194-.108-.232-.128-.154-.088-.194-.108-.234-.13a4.995 4.995 0 0 0-.234-.126c-.154-.088-.194-.108-.232-.128-.154-.088-.196-.106-.234-.128-.154-.086-.194-.106-.234-.128-.154-.086-.194-.106-.234-.128a11.458 11.458 0 0 0-.232-.128l-.236-.13-.232-.128-.234-.128c-.154-.084-.194-.106-.234-.126-.154-.088-.194-.106-.232-.128l-.234-.128-.234-.128c-.154-.086-.194-.106-.234-.128-.154-.086-.194-.106-.234-.128l-.232-.128c-.156-.088-.194-.106-.234-.128a5.096 5.096 0 0 0-.234-.128 5.096 5.096 0 0 0-.234-.128c-.154-.088-.194-.106-.232-.128-.158-.086-.196-.106-.234-.128-.156-.086-.196-.106-.234-.128l-.232-.128-.236-.128c-.154-.086-.196-.106-.232-.128-.158-.088-.196-.108-.234-.128a15.914 15.914 0 0 0-.234-.128c-.156-.088-.196-.108-.232-.128-.158-.088-.198-.108-.234-.128-.156-.088-.196-.106-.234-.128-.156-.086-.196-.106-.236-.128l-.232-.128-.234-.128c-.154-.086-.194-.106-.234-.128-.156-.086-.194-.108-.234-.128a6.406 6.406 0 0 0-.234-.128 11.458 11.458 0 0 0-.232-.128 3.032 3.032 0 0 0-.234-.126c-.154-.09-.196-.108-.234-.13a4.995 4.995 0 0 0-.234-.126c-.154-.088-.194-.108-.234-.13l-.232-.128c-.154-.086-.194-.106-.234-.128-.154-.088-.194-.106-.234-.128-.154-.088-.194-.106-.234-.128a2.8 2.8 0 0 0-.232-.126c-.156-.09-.194-.108-.234-.13-.154-.086-.194-.106-.234-.128a3.453 3.453 0 0 0-1.764-.488c-.574 0-1.162.146-1.718.466L4.54 34.988z"/>
        <path id="l" d="M.912 12.27c0 6.568 4.964 11.89 11.086 11.89 6.12 0 11.086-5.624 11.086-12.19 0-6.568-4.966-11.592-11.086-11.592C5.876.378.912 5.704.912 12.27z"/>
        <path id="n" d="M.912 12.27c0 6.568 4.964 11.89 11.086 11.89 6.12 0 11.086-5.624 11.086-12.19 0-6.568-4.966-11.592-11.086-11.592C5.876.378.912 5.704.912 12.27z"/>
        <path id="p" d="M.912 12.27c0 6.568 4.964 11.89 11.086 11.89 6.12 0 11.086-5.624 11.086-12.19 0-6.568-4.966-11.592-11.086-11.592C5.876.378.912 5.704.912 12.27"/>
        <path id="r" d="M1.616.708C-.39 1.224.222 4.21.39 6.034c.224 2.414.156 2.954 1.492 3.084 1.336.128 1.402-1.036 1.402-1.036l1.538-.324c1.534-.322 1.734-3.622 1.334-5.628C5.902.862 4.154.628 2.904.628c-.728 0-1.288.08-1.288.08z"/>
        <path id="t" d="M1.616.708C-.39 1.224.222 4.21.39 6.034c.224 2.414.156 2.954 1.492 3.084 1.336.128 1.402-1.036 1.402-1.036l1.538-.324c1.534-.322 1.734-3.622 1.334-5.628C5.902.862 4.154.628 2.904.628c-.728 0-1.288.08-1.288.08"/>
        <path id="v" d="M11.998 24.16c6.12 0 11.086-5.624 11.086-12.19 0-6.568-4.966-11.592-11.086-11.592C5.876.378.912 5.704.912 12.27c0 6.568 4.964 11.89 11.086 11.89z"/>
    </defs>
    <g fill="none" fill-rule="evenodd">
        <path fill="#47B5AF" d="M53.797 50.404L22 103.94l9.758 64.079 46.344 36.149h.005l73.233-10.46L186 135.14l-14.618-64.288L118.216 42z"/>
        <path fill="#484C4C" d="M159.009 128.978c-.286-.316 1.52-3.468 1.836-3.756l12.144-10.99a.781.781 0 0 1 1.098.054l1.042 1.152a.78.78 0 0 1-.056 1.096l-12.144 10.99c-.316.288-3.634 1.77-3.92 1.454"/>
        <g transform="translate(182 136.889)">
            <mask id="c" fill="#fff">
                <use xlink:href="#a"/>
            </mask>
            <path fill="url(#b)" fill-opacity=".1" d="M11.494 56.388l1.694 3.588 83.296-49.02L80.444.692.166 48.816 2.428 53" mask="url(#c)"/>
        </g>
        <path fill="#462D64" d="M196.598 147.207l-.32 47.238c-.01 1.386-1.53 2.23-2.712 1.506l-11.27-6.928s-3.962-2.566-.748-3.406c1.566-.408 7.628 1.454 7.628 1.454l.486-36.166s-.234-9.978.194-11.19c1.524-4.312 18.94-8.516 19.39-7.762 1.586 2.654-.048 9.396-.048 9.396l-.726 49.634a1.293 1.293 0 0 1-1.754 1.19l-10.327-6.061c0-.112-.003-2.112-.003-3.196 2.282-.374 6 .931 6 .931l-.03-39.944-5.76 3.304z"/>
        <path fill="#997D6A" d="M173.264 128.646s-9.7-3.578-7.718-6.444c1.98-2.864 7.106-2.208 8.792.786 1.682 2.992-1.074 5.658-1.074 5.658"/>
        <path fill="#FF4A75" d="M200.753 101.101s3.572-.502 7.356 4.292c2.042 2.586 1.792 8.12 1.792 8.624 0 .504.248 18.528.248 18.528s-21.244 12.148-21.314 11.802c-.408-2.042-.396-4.86-.396-4.86l1.424-21.272s-1.028 13.785-1.235 17.459c-4.334-.958-17.091-7.263-17.091-7.263l2.316-6.606 10.352 5.312s.452-17.466 2.466-19.816c3.416-3.984 9.46-5.318 9.46-5.318l4.622-.882z"/>
        <path fill="#997D6A" d="M198.483 85.255s-9.54-2.364-10.764 2.794c-1.226 5.16-.27 11.916 3.34 14.096 3.384 2.042 3.224 1.644 3.224 1.644s.042 3.026 3.412 2.832c3.37-.194 3.26-1.6 4.082-7.84.622-4.708 1.682-11.972-3.294-13.526"/>
        <g transform="translate(186 82.889)">
            <mask id="e" fill="#fff">
                <use xlink:href="#d"/>
            </mask>
            <path fill="#0D4D82" d="M-4.64 3.58s.072 6.502 11.954 5.474c0 0 2.622 9.594 7.398 7.946C19.488 15.354 18.046.47 18.046.47L6.67-3.862-4.64 3.58z" mask="url(#e)"/>
        </g>
        <g transform="translate(186 82.889)">
            <mask id="g" fill="#fff">
                <use xlink:href="#f"/>
            </mask>
            <path fill="#997D6A" d="M6.895 13.936c.192 1.19 1.238 2.012 2.336 1.836 1.1-.178 1.834-1.286 1.644-2.476-.192-1.19-1.238-2.012-2.338-1.834-1.098.176-1.834 1.284-1.642 2.474" mask="url(#g)"/>
        </g>
        <path fill="#FFCF15" d="M201.97 94.498s6.06-9.694-.208-12.65c-7.328-3.458-14.932 6.912-14.932 6.912s11.822 6.776 15.14 5.738"/>
        <path fill="#FF8F0F" d="M185.587 88.899s12.166 6.844 16.936 6.36l1.314-3.042-15.832-7.12s-2.142 2.006-2.418 3.802"/>
        <use fill="url(#i)" transform="translate(106 136.889)" xlink:href="#h"/>
        <g>
            <path fill="#462D64" d="M98.661 155.993v32.842l21.208-12.844v-31.996z"/>
            <path fill="#604684" d="M89.329 183.504l9.332 5.332v-32.842l-9.332 1.696z"/>
            <path fill="#F8F7F2" d="M136.1 23.693l-.119-.064-.116-.064-.116-.064-.116-.064c-.038-.022-.078-.042-.118-.064l-.116-.064-.118-.064-.116-.064-.116-.064a2.216 2.216 0 0 0-.118-.064c-.038-.024-.078-.042-.116-.064a2.216 2.216 0 0 0-.118-.064c-.038-.024-.076-.042-.116-.064l-.116-.064c-.038-.022-.078-.042-.118-.064l-.116-.064c-.038-.022-.078-.042-.118-.064l-.116-.064-.116-.064c-.038-.022-.078-.042-.118-.064l-.116-.064c-.04-.024-.078-.042-.118-.064l-.116-.064-.116-.064c-.038-.022-.078-.042-.118-.064-.038-.024-.078-.042-.116-.064a2.216 2.216 0 0 0-.118-.064l-.116-.064-.116-.064c-.038-.022-.078-.042-.118-.064l-.116-.064-.118-.064-.116-.064-.116-.064-.116-.064c-.04-.022-.08-.042-.118-.064l-.116-.064-.118-.064c-.038-.024-.078-.042-.116-.064a2.216 2.216 0 0 0-.118-.064l-.116-.064c-.038-.022-.078-.042-.118-.064l-.116-.064-.116-.064c-.038-.022-.078-.042-.118-.064l-.116-.064c-.038-.022-.078-.042-.118-.064l-.116-.064-.116-.064-.116-.064-.118-.064c-.038-.022-.078-.042-.118-.064l-.116-.064-.116-.064-.116-.064-.118-.064-.116-.064-.118-.064-.116-.064-.116-.064-.118-.064c-.038-.022-.078-.042-.118-.064l-.116-.064-.116-.064c-.038-.022-.078-.042-.118-.064l-.116-.064c-.038-.022-.078-.042-.118-.064l-.116-.064-.116-.064-.116-.064-.118-.064-.116-.064-.118-.064-.116-.064-.116-.064c-.038-.022-.078-.042-.118-.064l-.116-.064-.118-.064-.116-.064-.116-.064c-.038-.022-.078-.042-.118-.064-.038-.022-.078-.042-.118-.064l-.116-.064-.116-.064-.116-.064-.118-.064c-.038-.022-.078-.042-.118-.064l-.116-.064-.116-.064-.116-.064c-.038-.022-.078-.042-.118-.064l-.116-.064c-.038-.022-.078-.042-.118-.064l-.116-.064-.116-.064c-.038-.022-.078-.042-.118-.064l-.116-.064-.118-.064-.116-.064-.116-.064a3.415 3.415 0 0 0-3.484-.022L64.54 49.877a6.014 6.014 0 0 0-3.004 5.206V160.7c0 1.372.766 2.476 1.82 3.048.04.024.078.044.118.064.038.022.078.044.118.064.038.024.076.044.116.066.038.022.078.042.116.062.038.022.078.044.118.064.038.024.076.042.116.064l.116.064c.04.024.078.042.118.064l.116.064c.038.024.078.042.116.064.038.022.078.044.118.064.038.024.078.044.118.064.038.022.076.044.116.064.038.024.078.044.116.064.038.024.078.044.118.064.038.024.076.042.116.064.038.022.078.044.118.064.038.022.076.044.116.064l.116.064.116.064c.04.024.078.042.118.064l.116.064c.04.024.078.042.118.064l.116.064c.038.024.078.042.118.064.038.022.076.044.116.064.038.024.078.042.116.064.04.022.078.044.118.064.038.024.078.042.116.064l.116.064c.038.024.078.042.118.064.038.022.078.044.118.064l.116.064c.038.024.078.042.116.064l.116.064c.038.024.078.042.118.064.038.022.078.044.118.064.038.024.076.042.116.064.038.022.076.044.116.064.038.024.078.042.116.064.038.022.078.044.118.064.038.024.078.042.116.064.04.022.078.044.118.064.038.024.076.042.116.064l.116.064c.038.022.078.042.118.064l.116.064c.04.022.078.044.118.064.038.024.078.042.116.064l.116.064c.038.024.078.042.118.064.038.022.078.044.118.064.038.024.076.042.116.064l.116.064c.038.024.078.042.116.064.038.022.078.044.118.064.038.024.078.042.118.064.038.022.076.044.116.064.038.024.076.042.116.064l.116.064c.038.022.078.044.118.064l.116.064c.038.022.078.044.118.064l.116.064.116.064c.038.022.078.042.118.064.038.022.076.044.116.064.04.024.078.042.118.064.038.022.076.044.116.064.038.024.078.042.116.064.038.022.078.044.118.064.038.024.076.042.116.064l.116.064.118.064.116.064c.038.022.078.042.118.064l.116.064c.038.022.078.044.118.064.038.024.076.042.116.064l.116.064c.038.022.078.042.118.064.038.022.076.044.116.064.038.022.078.042.118.064.038.022.076.044.116.064l.116.064.116.064c.04.024.078.042.118.064l.116.064.118.064.116.064.116.064.118.064.116.064.118.064.116.064c.038.022.078.042.118.064l.116.064c.038.022.078.042.118.064.038.022.076.044.116.064l.116.064a3.433 3.433 0 0 0 3.514.014l56.688-33.022a5.366 5.366 0 0 0 2.666-4.64V26.717c0-1.36-.758-2.456-1.804-3.024"/>
        </g>
        <g transform="translate(60 14.889)">
            <mask id="k" fill="#fff">
                <use xlink:href="#j"/>
            </mask>
            <path fill="#FFF" d="M-.322 35.992l18.42 11.15L88.228 10.3 72.23-4.888 27.956.12z" mask="url(#k)"/>
        </g>
        <g>
            <path fill="#DDD7E5" d="M73.332 61.546v105.618c0 2.678 2.904 4.346 5.218 3l56.688-33.024a5.37 5.37 0 0 0 2.666-4.638V26.716c0-2.652-2.872-4.31-5.17-2.982L76.336 56.34a6.01 6.01 0 0 0-3.004 5.206"/>
            <path fill="#F8F7F2" d="M80.361 68.979v85.802l49.93-29.084V39.895z"/>
            <path fill="#DDD7E5" d="M116.87 34.411c2.738 4.746-.702 11.858-7.684 15.89s-14.862 3.454-17.602-1.29c-2.74-4.746.7-11.86 7.682-15.892 6.982-4.03 14.864-3.452 17.604 1.292"/>
            <path fill="#FFF" d="M113.797 36.81c1.988 3.444-.508 8.606-5.576 11.53-5.066 2.926-10.786 2.506-12.772-.936-1.988-3.442.508-8.604 5.574-11.53s10.786-2.506 12.774.936"/>
        </g>
        <g>
            <path fill="#5A4684" d="M105.034 36.391l-3.97 2.904-1.77 4.464 1.372 3.513 3.776.583 4.072-2.794 1.913-4.616-1.472-3.624z"/>
            <path fill="#CCC6D9" d="M103.802 40.623l-.025.011-.306 1.755-.038.213a.344.344 0 0 0 .013.182l.508 1.29c.027.068.08.106.143.105l.08-.004.31-1.762.043-.241a.337.337 0 0 0-.012-.18l-.51-1.283c-.036-.091-.117-.125-.206-.086M107.533 38.927l-1.08.487a.244.244 0 0 0-.129.163l-.391 1.74-.032.144a.44.44 0 0 0 .02.28l.65 1.402c.024.05.082.065.141.035l.048-.026.925-4.087c.025-.113-.052-.183-.152-.138"/>
            <path fill="#FEFEFE" d="M104.214 44.326l-1.112.46c-.064.026-.123.009-.148-.043l-1.44-2.994c-.039-.081.025-.21.126-.254l1.1-.472c.063-.028.123-.011.148.04l1.454 3.007c.04.083-.025.213-.128.256M106.666 43.312l-1.134.469c-.065.027-.125.01-.15-.042l-1.466-3.019c-.04-.082.025-.213.128-.257l1.122-.481c.064-.028.125-.012.15.04l1.481 3.032c.041.083-.026.215-.13.258"/>
        </g>
        <g>
            <path fill="#735996" d="M93.317 111.337a1.333 1.333 0 0 1-.67-2.488l13.948-8.072a1.335 1.335 0 0 1 1.336 2.31l-13.948 8.07c-.21.122-.44.18-.666.18M93.317 125.427a1.334 1.334 0 0 1-.668-2.488l23.126-13.36a1.334 1.334 0 0 1 1.334 2.31l-23.126 13.36c-.21.12-.44.178-.666.178M103.06 126.52a1.333 1.333 0 0 1-.673-2.485l13.384-7.786a1.334 1.334 0 0 1 1.34 2.306l-13.384 7.786c-.21.122-.44.18-.668.18"/>
            <path fill="#FFF" d="M117.083 81.159c0 6.568-4.962 11.89-11.084 11.89-6.124 0-11.086-5.322-11.086-11.89 0-6.568 4.962-11.89 11.086-11.89 6.122 0 11.084 5.322 11.084 11.89"/>
        </g>
        <g>
            <path d="M107.846 103.747L84.124 90.223l4.568-2.832 23.582 13.69-1.364.742-14.3-8.632-2.128 1.156 13.846 8.41z"/>
            <g transform="translate(94 68.889)">
                <mask id="m" fill="#fff">
                    <use xlink:href="#l"/>
                </mask>
                <path fill="#0D4D82" d="M11.438 30.817l-.168 18.774 3.526 2.764s-.168 1.626-2.016.976c-1.846-.65-4.05-2.416-4.05-2.416L8.686 32.5s-1.18-2.702-.268-4.226c.912-1.526 8.058-3.076 8.058-3.076l-.336 21.304 3.356 2.928s.024 2.194-2.182.812c-1.848-1.158-3.584-2.276-3.584-2.276v-18.42l-2.292 1.272z" mask="url(#m)"/>
            </g>
            <g transform="translate(94 68.889)">
                <mask id="o" fill="#fff">
                    <use xlink:href="#n"/>
                </mask>
                <path fill="#FF6647" d="M13.596 13.241s2.67.054 3.938 2.06c1.27 2.006.97 6.632.97 6.632l-1.802 5.508-1.208-1.708 1.25-2.722-.01-4.724c0 .194.1 7.138.1 7.138s-8.738 4.79-8.774 4.658c-.222-.818.138-1.982.138-1.982l.566-8.196s.628 4.854-.05 5.018c-.89.216.934 3.84.934 3.84l-1.824 1.25-2.11-7.196s.98-6.212 1.782-7.118c1.356-1.534 3.762-2.048 3.762-2.048l2.338-.41z" mask="url(#o)"/>
            </g>
            <g transform="translate(94 68.889)">
                <mask id="q" fill="#fff">
                    <use xlink:href="#p"/>
                </mask>
                <path fill="#998675" d="M11.615 6.707s4.14-.584 4.542 1.422c.4 2.006.2 5.306-1.336 5.63l-1.538.324s-.066 1.164-1.402 1.034c-1.336-.128-1.268-.668-1.49-3.084-.168-1.822-.78-4.808 1.224-5.326" mask="url(#q)"/>
            </g>
        </g>
        <g>
            <g transform="translate(104 74.889)">
                <mask id="s" fill="#fff">
                    <use xlink:href="#r"/>
                </mask>
                <path fill="#5E4F6F" d="M6.891 1.16s.134 2.501-4.608 2.393c0 0-.802 3.752-2.74 3.234C-2.393 6.271-2.193.513-2.193.513l4.408-1.942L6.891 1.16z" mask="url(#s)"/>
            </g>
            <g transform="translate(104 74.889)">
                <mask id="u" fill="#fff">
                    <use xlink:href="#t"/>
                </mask>
                <path fill="#998675" d="M.947 5.365c0 .464.358.84.8.84.444 0 .802-.376.802-.84 0-.464-.358-.842-.802-.842-.442 0-.8.378-.8.842" mask="url(#u)"/>
            </g>
        </g>
    </g>
</svg>
