<svg xmlns="http://www.w3.org/2000/svg" xmlns:xlink="http://www.w3.org/1999/xlink" width="252" height="220" viewBox="0 0 252 220">
    <defs>
        <path id="a" d="M141.892 20.515l21.283 11.55 15.06 66.23L86.96 151l-.138-98.681 55.07-31.804z"/>
        <path id="b" d="M56.607 25.83l5.12 2.933-3.086 4.372-10.618 14.85-4.977-2.832 13.56-19.324z"/>
        <path id="c" d="M5.534 23.787l5.327 3.035v6.127l-5.327-3.066v-6.096z"/>
        <linearGradient id="d" x1="100%" x2="29.633%" y1="31.603%" y2="87.489%">
            <stop offset="0%" stop-color="#D2D2D2" stop-opacity="0"/>
            <stop offset="100%" stop-color="#A3A3A3" stop-opacity=".3"/>
        </linearGradient>
        <path id="e" d="M22.163 7.082c-.11-.68.31-1.312.938-1.413.627-.101 1.225.368 1.334 1.048.11.68-.31 1.312-.938 1.413-.627.101-1.225-.368-1.334-1.048z"/>
        <linearGradient id="f" x1="70.642%" x2="18.778%" y1="63.978%" y2="68.227%">
            <stop offset="0%" stop-color="#45B5AE" stop-opacity="0"/>
            <stop offset="100%" stop-color="#177E78" stop-opacity=".5"/>
        </linearGradient>
        <path id="g" d="M4.626.978a7.05 7.05 0 0 1 5.84 2.87A7.079 7.079 0 0 1 7.97 14.364a7.05 7.05 0 0 1-5.84-2.87A7.078 7.078 0 0 1 4.626.978z"/>
        <linearGradient id="h" x1="0%" y1="100%" y2="0%">
            <stop offset="0%" stop-color="#735996" stop-opacity=".527"/>
            <stop offset="100%" stop-color="#735996" stop-opacity="0"/>
        </linearGradient>
        <path id="i" d="M22.22 3.799c1.601.585 3.117 1.202 4.19 1.726.678.33 1.504.71 2.37 1.097a8.162 8.162 0 0 0-1.218 1.798c-.482.993-.833 2.3-1.043 3.223-1.223-.457-2.446-1.187-3.858-1.776a8.841 8.841 0 0 0-2.298-.644c.04-.737.133-1.652.338-2.62.27-1.27.957-2.214 1.52-2.804z"/>
    </defs>
    <g fill="none" fill-rule="evenodd">
        <g transform="translate(36.667 21.38)">
            <path fill="#47B5AF" d="M34.836 9.747L.13 68.18l10.65 69.94 50.583 39.454 79.937-11.416 37.83-63.925-15.956-70.168L105.147.575z"/>
            <path fill="#2EA39D" d="M145.572 158.94l-106.317 1.389-19.483-15.197 132.54 2.418-6.74 11.39zm15.975-26.994l-152.62-6L.132 68.18 34.836 9.747 105.147.574l58.028 31.491 15.956 70.168-17.584 29.713z"/>
            <path fill="#FFF" d="M141.989 20.567l-55.1 31.82-57.612-33.281 5.559-9.36L105.147.575l36.842 19.993z"/>
            <path fill="#F8F7F2" d="M5.586 104.004L.131 68.18 29.28 19.1l57.608 33.287.07 98.544-81.373-46.927z"/>
            <use fill="#DDD7E5" xlink:href="#a"/>
        </g>
        <g transform="translate(36.667 67.713)">
            <path fill="#735996" d="M2.731 38.924l-2.6-17.078L12.573.897l48.99 28.075v44.172L2.73 38.924z"/>
            <path fill="#FFF" d="M.624 21.015L12.707.672l49.048 28.107-13.732 19.206L.624 21.015z"/>
            <path fill="#FFF" d="M.95 27.222l-.82-5.376.516-.867 47.281 26.94v6.339L.949 27.222z"/>
            <path fill="#735996" d="M19.262 4.428l5.119 2.934-13.684 19.385-5.072-2.886L19.262 4.428z"/>
            <path fill="#FF4A75" d="M31.433 11.403l5.118 2.933-13.659 19.35-5.071-2.886 13.612-19.397z"/>
            <path fill="#735996" d="M43.652 18.406l5.117 2.932-13.634 19.314-5.07-2.885 13.587-19.361z"/>
            <path fill="#FFF" d="M4.277 49.072L2.73 38.924l58.832 34.22-8.306 4.513-48.98-28.585z"/>
            <path fill="#FCFCF5" d="M4.608 51.25l-.331-2.178 48.98 28.585v2.089L4.608 51.249z"/>
            <path fill="#DDD7E5" d="M61.563 73.144v1.927l-8.306 4.675v-2.089z"/>
            <use fill="#FF4A75" xlink:href="#b"/>
            <path fill="#FF4A75" d="M43.126 45.187l4.801 2.735v6.338l-4.801-2.763v-6.31zM17.788 30.753l5.268 3.002v6.196l-5.268-3.032v-6.166z"/>
            <path fill="#735996" d="M30.162 37.82l4.994 2.845v6.265l-4.994-2.874V37.82z"/>
            <use fill="#735996" xlink:href="#c"/>
        </g>
        <path fill="#CCC0DD" d="M190.826 64.479l.178 38.95-20.395 11.882V76.294z"/>
        <path fill="#FFF" d="M173.457 78.035V105.8l15.097-8.679v-27.4z"/>
        <path fill="#FCFCF5" d="M170.609 76.294v39.128l-3.104-1.84V74.61z"/>
        <path fill="#FFF" d="M190.87 64.567l-20.284 11.727-3.081-1.685 20.417-11.749z"/>
        <path fill="#FFCF15" fill-rule="nonzero" d="M175.618 91.402a.5.5 0 1 1-.5-.866l6.482-3.75a.5.5 0 1 1 .5.865l-6.482 3.751z"/>
        <path fill="#FF6647" fill-rule="nonzero" d="M175.618 97.95a.5.5 0 1 1-.5-.866l10.747-6.208a.5.5 0 1 1 .5.866l-10.747 6.208z"/>
        <path fill="#FF4A75" fill-rule="nonzero" d="M180.147 98.458a.5.5 0 1 1-.503-.865l6.22-3.618a.5.5 0 0 1 .503.865l-6.22 3.618z"/>
        <path fill="#FF6647" fill-rule="nonzero" d="M179.757 79.675a.5.5 0 1 1-.5-.866l6.482-3.75a.5.5 0 1 1 .5.865l-6.482 3.75z"/>
        <g>
            <path fill="#CCC0DD" d="M160.394 84.042l.177 38.95-20.395 11.883V95.858z"/>
            <path fill="#FFF" d="M143.025 97.598v27.766l15.097-8.679v-27.4z"/>
            <path fill="#FCFCF5" d="M140.176 95.858v39.128l-3.103-1.84V94.173z"/>
            <path fill="#FFF" d="M160.438 84.131l-20.284 11.727-3.081-1.685 20.417-11.749z"/>
            <path fill="#FF4A75" fill-rule="nonzero" d="M145.422 113.62a.5.5 0 1 1-.5-.866l10.747-6.208a.5.5 0 0 1 .5.865l-10.747 6.209zM145.422 116.719a.5.5 0 1 1-.5-.866l10.747-6.209a.5.5 0 0 1 .5.866l-10.747 6.209zM145.422 119.818a.5.5 0 1 1-.5-.866l10.747-6.209a.5.5 0 0 1 .5.866l-10.747 6.209z"/>
            <path fill="#FFDF24" d="M153.159 101.928c.177-1.138.049-2.336-.426-3.309-.935-1.915-2.875-2.263-4.312-.772-.707.733-1.165 1.781-1.337 2.884-.177 1.138-.049 2.336.426 3.309.935 1.915 2.876 2.263 4.312.772.707-.733 1.165-1.781 1.337-2.884"/>
            <path fill="#E8CC29" d="M150.384 97.912c-.461 0-.943.238-1.367.73-.491.568-.817 1.374-.949 2.22-.135.871-.064 1.785.246 2.523.352.835.936 1.27 1.56 1.27.46 0 .942-.238 1.366-.73.492-.568.818-1.374.949-2.22.136-.87.064-1.785-.246-2.522-.351-.836-.936-1.271-1.559-1.271m0 .666c.37 0 .714.315.944.863.25.594.324 1.382.202 2.163-.116.749-.406 1.436-.794 1.886-.278.322-.584.499-.863.499-.37 0-.713-.314-.944-.863-.25-.593-.323-1.381-.202-2.162.117-.75.406-1.437.794-1.887.278-.321.585-.499.863-.499"/>
        </g>
        <g transform="translate(170 113.38)">
            <path fill="url(#d)" d="M38.048 47.44L19.642 59.678l4.257 3.746 5.301-3.293 1.304 1.286 14.416-9.5"/>
            <path fill="#462D64" d="M24.278 35.854c-.185 7.622-.246 16.614-.183 26.977a1.016 1.016 0 0 1-1.548.859l-6.437-3.956s-2.262-1.466-.427-1.944c.894-.234 4.355.83 4.355.83l.278-20.654s-.133-5.698.111-6.39c.87-2.463 10.816-4.864 11.074-4.433.905 1.516-.028 5.367-.028 5.367l-.414 28.344a.738.738 0 0 1-1.003.679l-5.99-3.452c-.044-1.196-.044-1.794 0-1.794 1.305-.205 3.518.491 3.518.491l-.016-22.81c-1.49.657-2.587 1.286-3.29 1.886z"/>
            <path fill="#C69C6D" d="M5.215 11.729c.807 1.51-.877 3.166-2.412 2.409-1.51-.745-3.332-1.903-2.637-2.909 1.13-1.636 4.059-1.26 5.02.449l.029.051"/>
            <path fill="#FFCF15" d="M26.65 9.524s.172-.701 2.332 2.036c.558.707 1.027 1.989 1.365 3.166.368 1.282.58 2.44.58 2.59 0 .287 1.089 10.165 1.089 10.165s-12.132 6.938-12.172 6.74c-.233-1.167-.226-2.776-.226-2.776l-.515-12.185s-6.106-.505-7.117-.583c-1.314-.101-8.867-4.123-8.867-4.123l1.283-3.617 7.662 3.306s5.578.448 6.728-.894c1.95-2.275 5.912-2.373 5.912-2.373l1.946-1.452z"/>
            <path fill="#C69C6D" d="M25.354.475s-5.448-1.35-6.147 1.597c-.7 2.945-.154 6.804 1.907 8.049 1.933 1.166 1.842.938 1.842.938s.023 1.729 1.947 1.618c1.925-.111 1.863-.914 2.333-4.477.354-2.69.96-6.837-1.882-7.725"/>
            <use fill="#C69C6D" xlink:href="#e"/>
            <path fill="#715534" d="M27.198 8.487c-.17.155-.36.273-.571.346-2.727.94-4.225-4.539-4.225-4.539-1.441.125-2.578.056-3.475-.13.028-.718.122-1.428.28-2.093C19.572.534 21.23.167 22.731.167c1.377 0 2.623.308 2.623.308 2.842.888 2.236 5.036 1.881 7.725l-.037.287z"/>
        </g>
        <g transform="translate(124.495 149)">
            <path fill="url(#f)" d="M27.803 11.39c2.928.063 3.606 1.88 2.235 4.224-1.286 2.198-5.41 3.983-7.415 4.122l-7.686 4.437-4.896-2.81L19 16.393c.09-.323.234-.66.437-1.008"/>
            <path fill="#C0C7CF" d="M5.196 23.457l10.17-5.871v6.397L5.197 29.79z"/>
            <path fill="#F4F8E1" d="M.3 26.97l4.896 2.82v-6.333L.3 20.647z"/>
            <path fill="#FFF" d="M15.367 17.585l-4.77-2.651L.3 20.647l4.896 2.81z"/>
            <path fill="#462D64" d="M1.54 20.658l9.12-4.904 3.404 1.873-8.805 5.05z"/>
            <path fill="#735996" d="M10.674 15.762l.028.645-8.434 4.646-.728-.395 9.12-4.904.014.008z"/>
            <path fill="#735996" d="M10.628 15.772l.032-.018 3.404 1.873-.675.388-2.761-1.534v-.71z"/>
            <path fill="#F4F8E3" d="M8.067 19.795l-.522.168v-8.48h.522z"/>
            <path fill="#33CFB8" d="M12.007 12.981a7.056 7.056 0 0 1-9.877-1.487 7.08 7.08 0 0 1 1.486-9.891 7.056 7.056 0 0 1 9.876 1.488 7.079 7.079 0 0 1-1.485 9.89z"/>
            <use fill="#75D6D3" xlink:href="#g"/>
        </g>
        <g transform="translate(123.222)">
            <path fill="url(#h)" d="M1.534 57.556L22.747 45.93l-1.413-.677L.059 56.572z"/>
            <path fill="#735996" d="M.664 57.126h.882V5.156H.664z"/>
            <path fill="#735996" d="M1.377 57.641H.802a.588.588 0 0 1-.587-.589v-13.03h1.75v13.03a.588.588 0 0 1-.588.59"/>
            <path fill="#735996" fill-rule="nonzero" d="M1.032 2.8h.548v4.491h-.548z"/>
            <path fill="#FF8F0F" d="M2.888.15s-1.176 2.062-.809 3.976c.368 1.913.662 4.048 1.764 3.828 1.103-.222 2.059-.59 4.852-.369 2.793.221 5.88.736 6.836.442.956-.295.221-.81 1.323-.295 1.103.516.956.958 2.132 1.252 1.176.295 1.911.147 3.675.883 1.765.736 3.235 1.694 4.779 2.061 1.544.369 1.91-.073 3.307.737 1.397.81 1.25 1.693 2.353.81 1.102-.884 1.764-3.902 1.69-4.27 0 0-5.513-2.282-8.38-3.68-2.866-1.4-8.894-3.46-11.247-3.828C12.811 1.328 9.65.519 7.372.445 5.092.371 2.888.151 2.888.151"/>
            <path fill="#FFF" d="M9.322.634c1.935.28 4.108.791 5.841 1.062.263.041.57.104.915.183-.572.95-1.278 2.195-1.6 3.057-.404 1.076.114 2.428.48 3.173-1.28.061-3.77-.317-6.092-.51-.211-.734-.46-1.73-.514-2.516-.098-1.424-.05-2.012.049-2.749.057-.43.535-1.165.921-1.7z"/>
            <use fill="#FFF" xlink:href="#i"/>
        </g>
        <path d="M0 0h252v220H0z"/>
    </g>
</svg>
